<?xml version="1.0" standalone="no"?>
<!DOCTYPE svg PUBLIC "-//W3C//DTD SVG 20010904//EN"
 "http://www.w3.org/TR/2001/REC-SVG-20010904/DTD/svg10.dtd">
<svg version="1.0" xmlns="http://www.w3.org/2000/svg"
 width="512.000000pt" height="512.000000pt" viewBox="0 0 512.000000 512.000000"
 preserveAspectRatio="xMidYMid meet" >

<g transform="translate(0.000000,512.000000) scale(0.100000,-0.100000)"
fill="#000000" stroke="none">
<path d="M1440 4132 l-795 -348 0 -624 c0 -556 2 -637 18 -735 79 -482 293
-903 631 -1241 248 -248 542 -427 853 -518 92 -27 92 -27 155 -10 54 15 267
91 276 100 2 1 -9 22 -26 46 -47 68 -111 202 -142 297 -87 269 -78 601 24 859
156 393 484 677 906 782 99 25 350 38 443 22 l57 -9 -2 516 -3 516 -795 347
c-437 191 -797 347 -800 347 -3 0 -363 -156 -800 -347z" fill="#ffffff"/>
<path d="M3518 2340 c-202 -32 -359 -110 -494 -244 -113 -114 -187 -246 -226
-404 -29 -119 -29 -293 1 -407 138 -523 708 -790 1195 -561 89 42 153 88 234
168 325 321 335 841 23 1180 -152 165 -354 259 -582 272 -52 2 -120 1 -151 -4z
m183 -300 c51 -14 123 -81 144 -132 63 -158 -49 -330 -216 -330 -173 0 -289
176 -218 332 27 60 54 88 114 116 54 26 116 30 176 14z m95 -675 c178 -41 304
-124 304 -201 0 -28 -102 -130 -172 -172 -89 -53 -162 -74 -273 -80 -117 -5
-195 11 -293 60 -73 36 -199 148 -208 184 -15 60 88 145 231 190 144 45 271
51 411 19z" fill="#ffffff"/>
</g>
</svg>
