<?xml version="1.0"?>
<svg xmlns="http://www.w3.org/2000/svg" xmlns:xlink="http://www.w3.org/1999/xlink" xmlns:svgjs="http://svgjs.com/svgjs" version="1.1" width="512" height="512" x="0" y="0" viewBox="0 0 24 24" style="enable-background:new 0 0 512 512" xml:space="preserve"><g><circle xmlns="http://www.w3.org/2000/svg" cx="9" cy="6" r="6" fill="#ffffff" data-original="#000000"/><path xmlns="http://www.w3.org/2000/svg" d="M13.043,14H4.957A4.963,4.963,0,0,0,0,18.957V24H18V18.957A4.963,4.963,0,0,0,13.043,14Z" fill="#ffffff" data-original="#000000"/><path xmlns="http://www.w3.org/2000/svg" d="M22,7.875a2.107,2.107,0,0,0-2,2.2,2.107,2.107,0,0,0-2-2.2,2.107,2.107,0,0,0-2,2.2c0,2.3,4,5.133,4,5.133s4-2.829,4-5.133A2.107,2.107,0,0,0,22,7.875Z" fill="#ffffff" data-original="#000000"/></g></svg>
