<?xml version="1.0" standalone="no"?>
<!DOCTYPE svg PUBLIC "-//W3C//DTD SVG 20010904//EN"
 "http://www.w3.org/TR/2001/REC-SVG-20010904/DTD/svg10.dtd">
<svg version="1.0" xmlns="http://www.w3.org/2000/svg"
 width="512.000000pt" height="512.000000pt" viewBox="0 0 512.000000 512.000000"
 preserveAspectRatio="xMidYMid meet">

<g transform="translate(0.000000,512.000000) scale(0.100000,-0.100000)"
fill="#6e75aa" stroke="none">
<path d="M2505 5004 c-320 -32 -541 -85 -792 -190 -528 -221 -972 -639 -1230
-1159 -66 -132 -103 -227 -103 -262 1 -43 34 -107 70 -133 62 -44 161 -36 213
18 14 15 48 78 76 140 289 650 863 1096 1576 1227 119 22 461 31 591 16 153
-18 287 -48 434 -97 680 -226 1204 -792 1380 -1487 82 -324 85 -675 8 -1002
-69 -296 -220 -603 -415 -845 -73 -90 -233 -249 -323 -321 -299 -240 -682
-401 -1070 -449 -109 -13 -391 -13 -500 0 -326 41 -656 162 -921 339 -333 223
-596 535 -760 903 -68 152 -104 188 -189 188 -113 0 -190 -100 -161 -208 16
-61 114 -266 186 -387 131 -223 376 -503 575 -657 184 -142 388 -261 585 -342
921 -375 1972 -164 2668 536 377 380 611 848 694 1388 24 160 24 520 0 680
-97 633 -411 1182 -899 1571 -350 279 -743 449 -1193 515 -98 14 -421 26 -500
18z"/>
<path d="M2432 3599 c-23 -12 -52 -35 -64 -52 -29 -41 -36 -123 -13 -168 9
-19 155 -172 323 -341 l307 -308 -1414 0 c-1050 0 -1424 -3 -1453 -12 -78 -23
-129 -111 -114 -194 9 -47 66 -108 114 -122 29 -9 403 -12 1453 -12 l1414 0
-307 -307 c-168 -170 -313 -322 -322 -340 -63 -127 56 -270 196 -233 38 10 95
63 510 478 257 256 475 481 483 498 19 41 19 107 0 148 -8 17 -226 242 -483
498 -397 396 -473 468 -507 477 -56 15 -74 14 -123 -10z"/>
</g>
</svg>
