<?xml version="1.0" standalone="no"?>
<!DOCTYPE svg PUBLIC "-//W3C//DTD SVG 20010904//EN"
 "http://www.w3.org/TR/2001/REC-SVG-20010904/DTD/svg10.dtd">
<svg version="1.0" xmlns="http://www.w3.org/2000/svg"
 width="512.000000pt" height="512.000000pt" viewBox="0 0 512.000000 512.000000"
 preserveAspectRatio="xMidYMid meet">

<g transform="translate(0.000000,512.000000) scale(0.100000,-0.100000)"
fill="#000000" stroke="none">
<path d="M1170 5113 c-46 -9 -925 -364 -978 -396 -74 -44 -135 -112 -163 -183
l-24 -59 0 -1915 0 -1915 24 -59 c29 -72 85 -135 160 -180 31 -18 263 -116
516 -217 455 -182 461 -184 535 -184 163 1 266 105 291 294 6 49 9 873 7 2316
-3 2179 -4 2241 -22 2290 -41 107 -91 160 -186 196 -47 18 -103 22 -160 12z
m128 -183 c18 -11 41 -37 50 -58 16 -34 17 -198 17 -2312 0 -2114 -1 -2278
-17 -2312 -23 -52 -72 -81 -123 -74 -42 6 -825 315 -925 366 -73 37 -106 76
-120 142 -8 39 -10 556 -8 1913 3 1734 4 1862 20 1891 22 41 67 78 126 105 61
27 839 339 872 349 43 14 74 11 108 -10z" font-weight="bold" fill="#ffffff"/>
<path d="M1053 2876 l-28 -24 -3 -259 c-2 -142 0 -273 3 -292 14 -75 91 -106
140 -56 l25 24 0 291 0 291 -25 24 c-31 32 -75 32 -112 1z"/>
<path d="M1745 4768 c-48 -26 -60 -87 -26 -129 l19 -24 659 -5 c651 -5 658 -5
699 -27 50 -27 97 -75 121 -122 17 -33 18 -88 23 -728 l5 -691 24 -26 c33 -35
83 -35 116 -1 l25 24 0 694 c0 655 -1 697 -19 749 -52 152 -174 258 -330 288
-76 14 -1289 13 -1316 -2z" font-weight="bold" fill="#ffffff"/>
<path d="M4145 3488 c-32 -17 -45 -39 -45 -77 0 -33 23 -58 362 -398 l362
-363 -1448 -2 -1448 -3 -24 -28 c-31 -37 -31 -81 1 -112 l24 -25 1446 0 c795
0 1445 -3 1445 -7 0 -4 -162 -170 -360 -368 -336 -337 -360 -363 -360 -395 1
-43 18 -67 58 -81 24 -8 37 -7 59 5 47 25 891 878 898 908 4 15 4 35 1 45 -3
10 -207 219 -454 466 -466 466 -464 464 -517 435z" font-weight="bold" fill="#ffffff"/>
<path d="M3269 2104 l-24 -26 -5 -691 c-5 -686 -5 -692 -27 -732 -28 -52 -78
-99 -128 -122 -37 -17 -92 -18 -688 -23 l-649 -5 -19 -24 c-22 -27 -24 -78 -5
-103 7 -10 25 -22 40 -28 36 -13 1208 -14 1291 0 158 26 293 146 340 303 13
43 15 153 15 739 l0 689 -25 24 c-33 34 -83 34 -116 -1z" font-weight="bold" fill="#ffffff"/>
</g>
</svg>
