<?xml version="1.0"?>
<svg xmlns="http://www.w3.org/2000/svg" xmlns:xlink="http://www.w3.org/1999/xlink" xmlns:svgjs="http://svgjs.com/svgjs" version="1.1" width="512" height="512" x="0" y="0" viewBox="0 0 24 24" style="enable-background:new 0 0 512 512" xml:space="preserve"><g><path xmlns="http://www.w3.org/2000/svg" d="M19.675,2.758A11.936,11.936,0,0,0,10.474.1,12,12,0,0,0,12.018,24H19a5.006,5.006,0,0,0,5-5V11.309l0-.063A12.044,12.044,0,0,0,19.675,2.758ZM8,7h4a1,1,0,0,1,0,2H8A1,1,0,0,1,8,7Zm8,10H8a1,1,0,0,1,0-2h8a1,1,0,0,1,0,2Zm0-4H8a1,1,0,0,1,0-2h8a1,1,0,0,1,0,2Z" fill="#ffffff" data-original="#000000"/></g></svg>
