<?xml version="1.0"?>
<svg xmlns="http://www.w3.org/2000/svg" xmlns:xlink="http://www.w3.org/1999/xlink" xmlns:svgjs="http://svgjs.com/svgjs" version="1.1" width="512" height="512" x="0" y="0" viewBox="0 0 24 24" style="enable-background:new 0 0 512 512" xml:space="preserve"><g><path xmlns="http://www.w3.org/2000/svg" d="M2,6A2,2,0,0,0,0,8v8a2,2,0,0,0,2,2H4.8L12,23.977V.017L4.8,6Z" fill="#ffffff" data-original="#000000"/><path xmlns="http://www.w3.org/2000/svg" d="M20,12a5.006,5.006,0,0,0-5-5H14V9h1a3,3,0,0,1,0,6H14v2h1A5.006,5.006,0,0,0,20,12Z" fill="#ffffff" data-original="#000000"/><path xmlns="http://www.w3.org/2000/svg" d="M15,3H14V5h1a7,7,0,0,1,0,14H14v2h1A9,9,0,0,0,15,3Z" fill="#ffffff" data-original="#000000"/></g></svg>
