<?xml version="1.0"?>
<svg xmlns="http://www.w3.org/2000/svg" xmlns:xlink="http://www.w3.org/1999/xlink" xmlns:svgjs="http://svgjs.com/svgjs" version="1.1" width="512" height="512" x="0" y="0" viewBox="0 0 24 24" style="enable-background:new 0 0 512 512" xml:space="preserve"><g><g xmlns="http://www.w3.org/2000/svg" id="_01_align_center" data-name="01 align center"><path d="M2,21V3A1,1,0,0,1,3,2H8V0H3A3,3,0,0,0,0,3V21a3,3,0,0,0,3,3H8V22H3A1,1,0,0,1,2,21Z" fill="#25d366" data-original="#000000"/><path d="M24,13l0-2-16.444.031,4.323-4.324L10.463,5.293,5.877,9.879a3,3,0,0,0,0,4.242l4.586,4.586,1.414-1.414L7.614,13.03Z" fill="#25d366" data-original="#000000"/></g></g></svg>
