<?xml version="1.0"?>
<svg xmlns="http://www.w3.org/2000/svg" xmlns:xlink="http://www.w3.org/1999/xlink" xmlns:svgjs="http://svgjs.com/svgjs" version="1.1" width="512" height="512" x="0" y="0" viewBox="0 0 24 24" style="enable-background:new 0 0 512 512" xml:space="preserve"><g><g xmlns="http://www.w3.org/2000/svg" id="_01_align_center" data-name="01 align center"><path d="M2,21V3A1,1,0,0,1,3,2H8V0H3A3,3,0,0,0,0,3V21a3,3,0,0,0,3,3H8V22H3A1,1,0,0,1,2,21Z" fill="#f65062" data-original="#000000"/><path d="M23.123,9.879,18.537,5.293,17.123,6.707l4.264,4.264L5,11l0,2,16.443-.029-4.322,4.322,1.414,1.414,4.586-4.586A3,3,0,0,0,23.123,9.879Z" fill="#f65062" data-original="#000000"/></g></g></svg>
